<svg width="91.000000" height="111.118408" viewBox="0 0 91 111.118" fill="none" xmlns="http://www.w3.org/2000/svg" xmlns:xlink="http://www.w3.org/1999/xlink">
	<desc>
			Created with Pixso.
	</desc>
	<defs/>
	<path id="Vector" d="M54.43 110.29L3.81 83.6C2.98 83.16 2.24 82.57 1.64 81.84C1.04 81.12 0.59 80.28 0.31 79.39C0.04 78.49 -0.06 77.54 0.03 76.61C0.12 75.67 0.39 74.76 0.83 73.93L37.82 3.81C38.71 2.14 40.23 0.88 42.04 0.32C43.86 -0.25 45.82 -0.07 47.51 0.82L79.68 17.77L91 56.5L64.12 107.29C63.23 108.97 61.71 110.23 59.89 110.79C58.08 111.35 56.11 111.17 54.43 110.29Z" fill="#029491" fill-opacity="1.000000" fill-rule="nonzero"/>
	<g opacity="0.300000">
		<path id="Vector" d="M79.68 17.77L69.25 37.49C68.43 39.06 68.26 40.88 68.78 42.57C69.3 44.26 70.47 45.67 72.03 46.5L91 56.5L79.68 17.77Z" fill="#FFFFFF" fill-opacity="1.000000" fill-rule="nonzero"/>
	</g>
	<g opacity="0.200000">
		<path id="Vector" d="M68.54 39.36C67.76 40.86 67.52 42.58 67.86 44.24C68.19 45.89 69.08 47.38 70.38 48.47L70.93 48.92C73.17 50.68 87.93 62.19 88.2 61.81C88.47 61.43 90.99 56.5 90.99 56.5L72.03 46.5C72.03 46.5 67.32 43.83 68.54 39.36Z" fill="#000000" fill-opacity="1.000000" fill-rule="nonzero"/>
	</g>
	<path id="Vector" d="M65.37 34.45C65.23 34.7 59.89 32.14 53.42 28.71C46.96 25.29 41.82 22.34 41.99 22.07C42.17 21.81 47.49 24.38 53.96 27.8C60.43 31.23 65.54 34.19 65.37 34.45Z" fill="#FAFAFA" fill-opacity="1.000000" fill-rule="nonzero"/>
	<path id="Vector" d="M74.6 53.65C74.48 53.9 65.73 49.55 55.09 43.93C44.44 38.31 35.94 33.49 36.06 33.24C36.19 32.99 44.93 37.33 55.58 42.95C66.22 48.58 74.75 53.33 74.6 53.65Z" fill="#FAFAFA" fill-opacity="1.000000" fill-rule="nonzero"/>
	<path id="Vector" d="M73.16 64.73C73.03 64.98 63.52 60.23 51.92 54.09C40.32 47.95 31 42.8 31.15 42.55C31.29 42.3 40.8 47.05 52.4 53.18C64.01 59.3 73.3 64.48 73.16 64.73Z" fill="#FAFAFA" fill-opacity="1.000000" fill-rule="nonzero"/>
	<path id="Vector" d="M68.53 73.51C68.39 73.76 58.87 69 47.27 62.88C35.67 56.76 26.37 51.57 26.52 51.32C26.66 51.07 36.16 55.83 47.76 61.95C59.36 68.07 68.69 73.26 68.53 73.51Z" fill="#FAFAFA" fill-opacity="1.000000" fill-rule="nonzero"/>
	<path id="Vector" d="M63.88 82.3C63.76 82.55 54.24 77.79 42.64 71.65C31.04 65.52 21.74 60.37 21.87 60.11C21.99 59.86 31.52 64.64 43.13 70.74C54.73 76.85 63.98 82.05 63.88 82.3Z" fill="#FAFAFA" fill-opacity="1.000000" fill-rule="nonzero"/>
	<path id="Vector" d="M59.27 91.08C59.12 91.33 49.61 86.57 38.02 80.45C26.44 74.32 17.11 69.14 17.25 68.89C17.39 68.64 26.89 73.4 38.5 79.52C50.1 85.64 59.39 90.82 59.27 91.08Z" fill="#FAFAFA" fill-opacity="1.000000" fill-rule="nonzero"/>
</svg>
